<mxfile host="app.diagrams.net" modified="2023-02-20T19:36:50.838Z" agent="5.0 (Windows NT 10.0; Win64; x64) AppleWebKit/537.36 (KHTML, like Gecko) Chrome/110.0.0.0 Safari/537.36" etag="wBMjHluSq-bKiNrwQKfL" version="20.8.21" type="github">
  <diagram name="Pagina-1" id="4exHKTs28U8KU95JV1Sf">
    <mxGraphModel dx="1221" dy="743" grid="1" gridSize="10" guides="1" tooltips="1" connect="1" arrows="1" fold="1" page="1" pageScale="1" pageWidth="827" pageHeight="1169" math="0" shadow="0">
      <root>
        <mxCell id="0" />
        <mxCell id="1" parent="0" />
        <mxCell id="3rT74jUYtBh-YsQsa9Nh-2" style="edgeStyle=orthogonalEdgeStyle;rounded=0;orthogonalLoop=1;jettySize=auto;html=1;exitX=0.5;exitY=1;exitDx=0;exitDy=0;endArrow=none;endFill=0;entryX=0.5;entryY=0;entryDx=0;entryDy=0;" edge="1" parent="1" source="3rT74jUYtBh-YsQsa9Nh-1" target="3rT74jUYtBh-YsQsa9Nh-3">
          <mxGeometry relative="1" as="geometry">
            <mxPoint x="240" y="280" as="targetPoint" />
          </mxGeometry>
        </mxCell>
        <mxCell id="3rT74jUYtBh-YsQsa9Nh-7" style="edgeStyle=orthogonalEdgeStyle;rounded=0;orthogonalLoop=1;jettySize=auto;html=1;exitX=0.5;exitY=1;exitDx=0;exitDy=0;entryX=0.5;entryY=0;entryDx=0;entryDy=0;endArrow=none;endFill=0;" edge="1" parent="1" source="3rT74jUYtBh-YsQsa9Nh-1" target="3rT74jUYtBh-YsQsa9Nh-6">
          <mxGeometry relative="1" as="geometry" />
        </mxCell>
        <mxCell id="3rT74jUYtBh-YsQsa9Nh-1" value="Regulate the flow of M3-85 to 200 +- 5" style="rounded=0;whiteSpace=wrap;html=1;" vertex="1" parent="1">
          <mxGeometry x="310" y="150" width="120" height="60" as="geometry" />
        </mxCell>
        <mxCell id="3rT74jUYtBh-YsQsa9Nh-3" value="1.2 Reg/3 off" style="rounded=0;whiteSpace=wrap;html=1;" vertex="1" parent="1">
          <mxGeometry x="440" y="270" width="120" height="60" as="geometry" />
        </mxCell>
        <mxCell id="3rT74jUYtBh-YsQsa9Nh-5" value="Reg/3 on" style="rounded=0;whiteSpace=wrap;html=1;" vertex="1" parent="1">
          <mxGeometry x="60" y="380" width="120" height="60" as="geometry" />
        </mxCell>
        <mxCell id="3rT74jUYtBh-YsQsa9Nh-8" style="edgeStyle=orthogonalEdgeStyle;rounded=0;orthogonalLoop=1;jettySize=auto;html=1;exitX=0.5;exitY=1;exitDx=0;exitDy=0;entryX=0.5;entryY=0;entryDx=0;entryDy=0;endArrow=none;endFill=0;" edge="1" parent="1" source="3rT74jUYtBh-YsQsa9Nh-6" target="3rT74jUYtBh-YsQsa9Nh-5">
          <mxGeometry relative="1" as="geometry" />
        </mxCell>
        <mxCell id="3rT74jUYtBh-YsQsa9Nh-10" style="edgeStyle=orthogonalEdgeStyle;rounded=0;orthogonalLoop=1;jettySize=auto;html=1;exitX=0.5;exitY=1;exitDx=0;exitDy=0;entryX=0.5;entryY=0;entryDx=0;entryDy=0;endArrow=none;endFill=0;" edge="1" parent="1" source="3rT74jUYtBh-YsQsa9Nh-6" target="3rT74jUYtBh-YsQsa9Nh-9">
          <mxGeometry relative="1" as="geometry" />
        </mxCell>
        <mxCell id="3rT74jUYtBh-YsQsa9Nh-6" value="1.1 Adjust pump 3 to 0.5" style="rounded=0;whiteSpace=wrap;html=1;" vertex="1" parent="1">
          <mxGeometry x="180" y="270" width="120" height="60" as="geometry" />
        </mxCell>
        <mxCell id="3rT74jUYtBh-YsQsa9Nh-9" value="Reg/3 on" style="rounded=0;whiteSpace=wrap;html=1;" vertex="1" parent="1">
          <mxGeometry x="310" y="380" width="120" height="60" as="geometry" />
        </mxCell>
        <mxCell id="3rT74jUYtBh-YsQsa9Nh-11" value="If 1.1 and 1.2" style="text;html=1;align=center;verticalAlign=middle;resizable=0;points=[];autosize=1;strokeColor=none;fillColor=none;" vertex="1" parent="1">
          <mxGeometry x="370" y="215" width="90" height="30" as="geometry" />
        </mxCell>
      </root>
    </mxGraphModel>
  </diagram>
</mxfile>
